<?xml version="1.0" encoding="utf-8"?>
<!-- Svg Vector Icons : http://www.onlinewebfonts.com/icon -->
<!DOCTYPE svg PUBLIC "-//W3C//DTD SVG 1.1//EN" "http://www.w3.org/Graphics/SVG/1.1/DTD/svg11.dtd">
<svg version="1.1" xmlns="http://www.w3.org/2000/svg" xmlns:xlink="http://www.w3.org/1999/xlink" x="0px" y="0px" viewBox="0 0 1000 1000" enable-background="new 0 0 1000 1000" xml:space="preserve">
<metadata> Svg Vector Icons : http://www.onlinewebfonts.com/icon </metadata>
<g><g transform="translate(0.000000,431.000000) scale(0.100000,-0.100000)"><path d="M4171.3,3389.7c-927-65.9-1793.8-358.8-2713-915.3c-517.8-314.2-1153.9-799-1212-923.1c-50.4-106.7-34.9-256,36.8-349.1c85.3-114.4,135.8-126,543-126c197.8,0,358.8-3.9,358.8-7.8c0-3.9-81.5-89.2-178.4-190.1C440.2,302.4,141.6-405.4,104.7-1251c-19.4-479,17.5-601.2,182.3-601.2c67.9,0,97,25.2,599.2,527.5c473.2,471.2,529.4,521.7,539.1,479c5.8-25.2,19.4-124.1,31-221.1c13.6-95,44.6-287,71.8-426.6c269.6-1427.3,808.7-2427.9,1574.7-2934.1c279.3-184.2,643.8-318,938.6-345.2c131.9-11.7,145.4-9.7,195.9,34.9c83.4,71.8,77.6,157.1-23.3,288.9c-157.1,207.5-300.6,572.1-380.1,956.1c-46.5,217.2-89.2,616.7-89.2,814.5v174.5l277.3-271.5c492.6-486.8,928.9-789.3,1278-890.1c97-27.1,116.3-27.1,174.5-3.9c42.7,17.5,75.6,50.4,93.1,91.1c23.3,54.3,21.3,71.8-17.4,161c-149.3,343.3-203.6,599.2-203.6,944.4c0,296.7,44.6,517.8,145.4,738.9c48.5,104.7,85.3,149.3,217.2,261.8c320,273.4,690.4,558.5,969.6,746.6c273.4,182.3,290.9,192,387.9,192c166.8,0,506.2,38.8,808.7,91.2c155.1,25.2,387.9,52.4,517.8,58.2c366.5,17.5,562.4-33,733-190c106.7-98.9,159-192,205.6-376.2c50.4-190,133.8-244.3,269.6-174.5c60.1,31,100.8,122.2,184.2,411.1c91.2,312.2,114.4,482.9,114.4,820.3c1.9,354.9-25.2,515.8-128,775.7c-168.7,428.6-519.7,785.4-991,1010.4c-283.1,133.8-669,221.1-1070.5,242.4l-213.3,11.6l-87.3,83.4c-321.9,302.5-800.9,614.7-1221.7,795.1C5552.1,3300.5,4805.5,3436.2,4171.3,3389.7z M5373.7,2536.4c519.7-141.6,841.7-698.1,707.8-1217.9c-162.9-618.6-841.6-934.7-1417.6-659.3c-618.6,296.7-766,1122.8-287,1609.6C4642.6,2538.4,5007.2,2637.3,5373.7,2536.4z M8022.7,1764.6c678.7-118.3,1148-432.5,1388.5-932.8c114.4-238.5,157.1-475.1,145.4-812.5c-3.9-149.3-19.4-318-33-374.3l-23.3-102.8L9386-349.2C9263.8-232.8,9073.8-132,8883.7-85.5c-176.5,44.6-773.8,34.9-1047.2-17.5c-122.2-21.3-300.6-50.4-397.5-62.1c-213.3-27.1-826.1-27.1-1087.9,0c-246.3,23.3-725.3,100.8-725.3,114.4c0,5.8,81.4,58.2,180.3,114.4c577.9,331.6,1022,899.8,1169.4,1502.9l31,126l104.7,33c56.3,17.5,143.5,38.8,195.9,48.5C7466.1,1799.5,7842.3,1795.6,8022.7,1764.6z"/><path d="M4941.2,2218.4c-238.5-56.2-424.7-246.3-490.6-502.3c-98.9-387.9,192-781.5,599.2-810.6l129.9-9.7l-75.6,114.4c-116.4,176.5-164.8,331.6-164.8,550.7c-1.9,221.1,31,343.3,143.5,527.5c42.7,71.7,77.6,133.8,77.6,139.6C5160.3,2245.5,5026.6,2237.8,4941.2,2218.4z"/><path d="M5441.5,2005.1c-102.8-114.4-151.3-234.6-161-405.3c-5.8-116.4,0-168.7,33-254c44.6-118.3,166.8-288.9,207.5-288.9c32.9,0,133.8,126,184.2,226.9c116.3,238.5,62,560.4-124.1,738.8l-65.9,64L5441.5,2005.1z"/><path d="M7555.3,1384.5c-110.5-106.7-211.4-219.1-223-250.2c-46.6-114.4,31-232.7,153.2-232.7c60.1,0,91.1,23.3,287,219.1c201.7,201.7,219.1,225,219.1,290.9c0,95-73.7,168.7-168.7,168.7C7764.8,1580.4,7729.9,1555.2,7555.3,1384.5z"/></g></g>
</svg>